<svg width="24" height="16" viewBox="0 0 24 16" fill="none" xmlns="http://www.w3.org/2000/svg">
<path d="M6.83333 3.66664V4.2458C7.14583 4.2958 7.44167 4.36664 7.7125 4.44164C8.15833 4.5583 8.42083 5.01664 8.30417 5.46247C8.1875 5.9083 7.72917 6.1708 7.28333 6.05414C6.825 5.9333 6.38333 5.8458 5.98333 5.83747C5.65417 5.8333 5.31667 5.91247 5.0875 6.0458C4.8875 6.16247 4.82917 6.27914 4.82917 6.4333C4.82917 6.5083 4.83333 6.57914 5.05 6.71247C5.3125 6.8708 5.69583 6.99164 6.22917 7.14997L6.25833 7.1583L6.28365 7.16599C6.74655 7.30646 7.33362 7.48461 7.80417 7.7833C8.34167 8.1208 8.81667 8.6708 8.82917 9.51664C8.84167 10.3875 8.39167 11.0208 7.79583 11.3916C7.49583 11.5791 7.1625 11.6958 6.82917 11.7666V12.3333C6.82917 12.7916 6.45417 13.1666 5.99583 13.1666C5.5375 13.1666 5.1625 12.7916 5.1625 12.3333V11.725C4.73333 11.6333 4.32917 11.4958 3.9875 11.375C3.9 11.3458 3.81667 11.3166 3.73333 11.2875C3.29583 11.1416 3.0625 10.6708 3.20833 10.2333C3.35417 9.7958 3.825 9.56247 4.2625 9.7083C4.36667 9.74164 4.46667 9.77914 4.5625 9.8083C5.12917 9.99997 5.5625 10.1458 6.025 10.1625C6.38333 10.175 6.7125 10.0958 6.91667 9.96664C7.0875 9.86247 7.16667 9.73747 7.1625 9.52914C7.1625 9.4083 7.12917 9.3208 6.91667 9.18747C6.65417 9.0208 6.275 8.89997 5.75 8.74164L5.67917 8.7208L5.65985 8.71496C5.2089 8.57846 4.64769 8.40858 4.19583 8.13747C3.66667 7.81664 3.17083 7.2833 3.16667 6.44164C3.1625 5.56247 3.65833 4.95414 4.24167 4.61247C4.52917 4.44164 4.84583 4.32914 5.16667 4.2583V3.66664C5.16667 3.2083 5.54167 2.8333 6 2.8333C6.45833 2.8333 6.83333 3.2083 6.83333 3.66664Z" fill="#5E72E4"/>
<path d="M11.3333 5.3333H20.6667C21.0333 5.3333 21.3333 5.6333 21.3333 5.99997C21.3333 6.36664 21.0333 6.66664 20.6667 6.66664H11.3333C10.9667 6.66664 10.6667 6.36664 10.6667 5.99997C10.6667 5.6333 10.9667 5.3333 11.3333 5.3333Z" fill="#5E72E4"/>
<path d="M10.6667 9.99997C10.6667 9.6333 10.9667 9.3333 11.3333 9.3333H20.6667C21.0333 9.3333 21.3333 9.6333 21.3333 9.99997C21.3333 10.3666 21.0333 10.6666 20.6667 10.6666H11.3333C10.9667 10.6666 10.6667 10.3666 10.6667 9.99997Z" fill="#5E72E4"/>
<path fill-rule="evenodd" clip-rule="evenodd" d="M19.3333 1.99999H4.66667H3C2.44772 1.99999 2 2.44771 2 2.99999V4.66666V11.3333V13C2 13.5523 2.44772 14 3 14H4.66667H19.3333H21C21.5523 14 22 13.5523 22 13V11.3333V4.66666V2.99999C22 2.44771 21.5523 1.99999 21 1.99999H19.3333ZM0 2.66664C0 1.1958 1.19583 -3.05176e-05 2.66667 -3.05176e-05H21.3333C22.8042 -3.05176e-05 24 1.1958 24 2.66664V13.3333C24 14.8041 22.8042 16 21.3333 16H2.66667C1.19583 16 0 14.8041 0 13.3333V2.66664Z" fill="#5E72E4"/>
</svg>
