<svg xmlns="http://www.w3.org/2000/svg" viewBox="0 0 96 96">
  <defs>
    <style>
      .cls-1{
        <!-- fill:#f6f1f1; -->
        opacity: 0;
      }
      .cls-2{
        <!-- fill:#5e72e4; -->
        fill:#f6f1f1;
      }
      @media (prefers-color-scheme: dark) {
        .cls-2 { 
          fill: #262523; 
        }
      }
    </style>
  </defs>
  <title>favicon</title>
  <g id="Calque_2" data-name="Calque 2">
    <g id="Calque_1-2" data-name="Calque 1">
      <rect class="cls-1" width="96" height="96" rx="12" ry="12"/>
      <path class="cls-2" d="M49,18.44A25.79,25.79,0,0,1,58.31,20a19.39,19.39,0,0,1,7,4.58,20.42,20.42,0,0,1,4.46,7,24.85,24.85,0,0,1,1.55,8.91,22.8,22.8,0,0,1-2.51,10.9,18.32,18.32,0,0,1-7,7.32,19.54,19.54,0,0,1-10.11,2.63,16.5,16.5,0,0,1-4.29-.56,13.3,13.3,0,0,1-3.74-1.63,13,13,0,0,1-2.94-2.59h-.32V77.56H26.64V40.72a23.86,23.86,0,0,1,2.79-11.78,19.35,19.35,0,0,1,7.83-7.75A24.21,24.21,0,0,1,49,18.44Zm0,12a7.79,7.79,0,0,0-4.3,1.23A8.22,8.22,0,0,0,41.76,35a11,11,0,0,0-1,4.89,10.44,10.44,0,0,0,1,4.66,8.22,8.22,0,0,0,2.94,3.34,8.34,8.34,0,0,0,8.72,0,8,8,0,0,0,2.86-3.34,10.84,10.84,0,0,0,1-4.66,11.42,11.42,0,0,0-1-4.89,8,8,0,0,0-2.86-3.34A7.87,7.87,0,0,0,49,30.46Z"/>
    </g>
  </g>
</svg>